<?xml version="1.0" encoding="UTF-8"?>
<svg xmlns="http://www.w3.org/2000/svg" viewBox="0 0 240 160">
  <defs>
    <linearGradient id="bg3" x1="0%" y1="0%" x2="100%" y2="100%">
      <stop offset="0%" stop-color="#14213d"/>
      <stop offset="100%" stop-color="#0b525b"/>
    </linearGradient>
    <style>
      .board { fill: none; stroke: #f1faee; stroke-width: 2.5; rx: 10; }
      .node { fill: #f4a261; }
      .edge { stroke: #f1faee; stroke-width: 2; stroke-linecap: round; }
      .note { fill: #e9ecef; font-family: 'Arial', sans-serif; font-size: 11px; }
      .badge { fill: #e63946; stroke: #f1faee; stroke-width: 2; }
    </style>
  </defs>
  <rect width="240" height="160" rx="12" fill="url(#bg3)"/>
  <rect x="40" y="36" width="160" height="88" class="board" rx="12"/>
  <g>
    <line x1="80" y1="68" x2="120" y2="56" class="edge"/>
    <line x1="120" y1="56" x2="160" y2="76" class="edge"/>
    <line x1="80" y1="68" x2="120" y2="96" class="edge"/>
    <line x1="120" y1="96" x2="160" y2="76" class="edge"/>
    <circle cx="80" cy="68" r="10" class="node"/>
    <circle cx="120" cy="56" r="10" class="node"/>
    <circle cx="120" cy="96" r="10" class="node"/>
    <circle cx="160" cy="76" r="10" class="node"/>
  </g>
  <rect x="54" y="114" width="52" height="18" rx="4" fill="#264653" opacity="0.8"/>
  <rect x="134" y="114" width="52" height="18" rx="4" fill="#264653" opacity="0.8"/>
  <text x="80" y="128" text-anchor="middle" class="note">FPGA Labs</text>
  <text x="160" y="128" text-anchor="middle" class="note">ESP32 Play</text>
  <polygon class="badge" points="24,28 36,40 24,52 12,40"/>
  <text x="24" y="44" text-anchor="middle" class="note" font-size="10">NSF</text>
</svg>
